<svg width="120" height="88" viewBox="0 0 120 88" fill="none" xmlns="http://www.w3.org/2000/svg">
<path d="M10.3267 63.2501C34.8299 70.0682 57.0241 65.2188 76.953 49.2036C78.8435 47.6904 80.0335 44.8015 82.0699 44.1294C84.7746 43.2354 88.9767 42.6833 90.7685 44.1435C94.8256 47.4582 94.3762 51.6296 90.5524 54.0949C81.885 59.673 73.1972 65.2159 64.3167 70.425C54.4801 76.2096 43.2667 76.5464 32.3265 77.1939C25.4163 77.5996 18.3665 77.1958 11.5041 76.2035C8.70301 75.7945 5.64102 73.3108 3.86146 70.9182C2.65389 69.2729 2.58618 65.646 3.63619 63.8335C4.46768 62.393 7.7424 62.3646 9.93493 61.7195L10.3267 63.2501Z" fill="black"/>
<path d="M103.953 22.4301C109.006 24.0218 111.817 26.9432 111.814 31.056C111.786 40.1372 111.15 49.2186 110.517 58.2861C110.262 61.9005 107.003 63.4776 104.479 62.0885C102.031 60.7495 99.5344 57.5411 99.1514 54.8693C98.5401 50.6662 99.6764 46.2036 100.087 41.8437C100.488 37.6889 98.6953 36.0651 94.5191 36.5202C86.7138 37.3841 78.8811 38.0178 71.0501 38.7559C66.7529 39.1638 65.7323 35.7123 64.7988 32.8782C63.7667 29.6909 65.54 27.2851 68.8468 26.8048C72.1045 26.3412 75.5044 26.7325 78.7519 26.2512C85.2369 25.2712 91.6559 23.8725 98.1354 22.802C100.327 22.4387 102.59 22.5255 103.949 22.444L103.953 22.4301Z" fill="black"/>
</svg>
